<?xml version="1.0" encoding="utf-8" standalone="no"?>
<!DOCTYPE svg PUBLIC "-//W3C//DTD SVG 1.1//EN"
  "http://www.w3.org/Graphics/SVG/1.1/DTD/svg11.dtd">
<svg height="725.9805pt" version="1.1" viewBox="0 0 736.839375 725.9805" width="736.839375pt" xmlns="http://www.w3.org/2000/svg" xmlns:xlink="http://www.w3.org/1999/xlink">
 <metadata>
  <rdf:RDF xmlns:cc="http://creativecommons.org/ns#" xmlns:dc="http://purl.org/dc/elements/1.1/" xmlns:rdf="http://www.w3.org/1999/02/22-rdf-syntax-ns#">
   <cc:Work>
    <dc:type rdf:resource="http://purl.org/dc/dcmitype/StillImage"/>
    <dc:date>2021-09-29T11:01:15.931933</dc:date>
    <dc:format>image/svg+xml</dc:format>
    <dc:creator>
     <cc:Agent>
      <dc:title>Matplotlib v3.4.3, https://matplotlib.org/</dc:title>
     </cc:Agent>
    </dc:creator>
   </cc:Work>
  </rdf:RDF>
 </metadata>
 <defs>
  <style type="text/css">*{stroke-linecap:butt;stroke-linejoin:round;}</style>
 </defs>
 <g id="figure_1">
  <g id="patch_1">
   <path d="M 0 725.9805 
L 736.839375 725.9805 
L 736.839375 0 
L 0 0 
z
" style="fill:#ffffff;"/>
  </g>
  <g id="axes_1">
   <g id="patch_2">
    <path d="M 117.319687 623.62425 
L 619.519688 623.62425 
L 619.519688 235.54425 
L 117.319687 235.54425 
z
" style="fill:#ffffff;"/>
   </g>
   <g id="patch_3">
    <path clip-path="url(#pc4d5d7f74b)" d="M 140.14696 623.62425 
L 270.588519 623.62425 
L 270.588519 254.02425 
L 140.14696 254.02425 
z
" style="fill:#1f77b4;"/>
   </g>
   <g id="patch_4">
    <path clip-path="url(#pc4d5d7f74b)" d="M 303.198908 623.62425 
L 433.640467 623.62425 
L 433.640467 617.900386 
L 303.198908 617.900386 
z
" style="fill:#1f77b4;"/>
   </g>
   <g id="patch_5">
    <path clip-path="url(#pc4d5d7f74b)" d="M 466.250856 623.62425 
L 596.692415 623.62425 
L 596.692415 623.096393 
L 466.250856 623.096393 
z
" style="fill:#1f77b4;"/>
   </g>
   <g id="matplotlib.axis_1">
    <g id="xtick_1">
     <g id="line2d_1">
      <defs>
       <path d="M 0 0 
L 0 3.5 
" id="m1bb7ea7a41" style="stroke:#000000;stroke-width:0.8;"/>
      </defs>
      <g>
       <use style="stroke:#000000;stroke-width:0.8;" x="205.367739" xlink:href="#m1bb7ea7a41" y="623.62425"/>
      </g>
     </g>
     <g id="text_1">
      <!-- Ultra Markdown -->
      <g transform="translate(165.830239 638.222687)scale(0.1 -0.1)">
       <defs>
        <path d="M 556 4666 
L 1191 4666 
L 1191 1831 
Q 1191 1081 1462 751 
Q 1734 422 2344 422 
Q 2950 422 3222 751 
Q 3494 1081 3494 1831 
L 3494 4666 
L 4128 4666 
L 4128 1753 
Q 4128 841 3676 375 
Q 3225 -91 2344 -91 
Q 1459 -91 1007 375 
Q 556 841 556 1753 
L 556 4666 
z
" id="DejaVuSans-55" transform="scale(0.015625)"/>
        <path d="M 603 4863 
L 1178 4863 
L 1178 0 
L 603 0 
L 603 4863 
z
" id="DejaVuSans-6c" transform="scale(0.015625)"/>
        <path d="M 1172 4494 
L 1172 3500 
L 2356 3500 
L 2356 3053 
L 1172 3053 
L 1172 1153 
Q 1172 725 1289 603 
Q 1406 481 1766 481 
L 2356 481 
L 2356 0 
L 1766 0 
Q 1100 0 847 248 
Q 594 497 594 1153 
L 594 3053 
L 172 3053 
L 172 3500 
L 594 3500 
L 594 4494 
L 1172 4494 
z
" id="DejaVuSans-74" transform="scale(0.015625)"/>
        <path d="M 2631 2963 
Q 2534 3019 2420 3045 
Q 2306 3072 2169 3072 
Q 1681 3072 1420 2755 
Q 1159 2438 1159 1844 
L 1159 0 
L 581 0 
L 581 3500 
L 1159 3500 
L 1159 2956 
Q 1341 3275 1631 3429 
Q 1922 3584 2338 3584 
Q 2397 3584 2469 3576 
Q 2541 3569 2628 3553 
L 2631 2963 
z
" id="DejaVuSans-72" transform="scale(0.015625)"/>
        <path d="M 2194 1759 
Q 1497 1759 1228 1600 
Q 959 1441 959 1056 
Q 959 750 1161 570 
Q 1363 391 1709 391 
Q 2188 391 2477 730 
Q 2766 1069 2766 1631 
L 2766 1759 
L 2194 1759 
z
M 3341 1997 
L 3341 0 
L 2766 0 
L 2766 531 
Q 2569 213 2275 61 
Q 1981 -91 1556 -91 
Q 1019 -91 701 211 
Q 384 513 384 1019 
Q 384 1609 779 1909 
Q 1175 2209 1959 2209 
L 2766 2209 
L 2766 2266 
Q 2766 2663 2505 2880 
Q 2244 3097 1772 3097 
Q 1472 3097 1187 3025 
Q 903 2953 641 2809 
L 641 3341 
Q 956 3463 1253 3523 
Q 1550 3584 1831 3584 
Q 2591 3584 2966 3190 
Q 3341 2797 3341 1997 
z
" id="DejaVuSans-61" transform="scale(0.015625)"/>
        <path id="DejaVuSans-20" transform="scale(0.015625)"/>
        <path d="M 628 4666 
L 1569 4666 
L 2759 1491 
L 3956 4666 
L 4897 4666 
L 4897 0 
L 4281 0 
L 4281 4097 
L 3078 897 
L 2444 897 
L 1241 4097 
L 1241 0 
L 628 0 
L 628 4666 
z
" id="DejaVuSans-4d" transform="scale(0.015625)"/>
        <path d="M 581 4863 
L 1159 4863 
L 1159 1991 
L 2875 3500 
L 3609 3500 
L 1753 1863 
L 3688 0 
L 2938 0 
L 1159 1709 
L 1159 0 
L 581 0 
L 581 4863 
z
" id="DejaVuSans-6b" transform="scale(0.015625)"/>
        <path d="M 2906 2969 
L 2906 4863 
L 3481 4863 
L 3481 0 
L 2906 0 
L 2906 525 
Q 2725 213 2448 61 
Q 2172 -91 1784 -91 
Q 1150 -91 751 415 
Q 353 922 353 1747 
Q 353 2572 751 3078 
Q 1150 3584 1784 3584 
Q 2172 3584 2448 3432 
Q 2725 3281 2906 2969 
z
M 947 1747 
Q 947 1113 1208 752 
Q 1469 391 1925 391 
Q 2381 391 2643 752 
Q 2906 1113 2906 1747 
Q 2906 2381 2643 2742 
Q 2381 3103 1925 3103 
Q 1469 3103 1208 2742 
Q 947 2381 947 1747 
z
" id="DejaVuSans-64" transform="scale(0.015625)"/>
        <path d="M 1959 3097 
Q 1497 3097 1228 2736 
Q 959 2375 959 1747 
Q 959 1119 1226 758 
Q 1494 397 1959 397 
Q 2419 397 2687 759 
Q 2956 1122 2956 1747 
Q 2956 2369 2687 2733 
Q 2419 3097 1959 3097 
z
M 1959 3584 
Q 2709 3584 3137 3096 
Q 3566 2609 3566 1747 
Q 3566 888 3137 398 
Q 2709 -91 1959 -91 
Q 1206 -91 779 398 
Q 353 888 353 1747 
Q 353 2609 779 3096 
Q 1206 3584 1959 3584 
z
" id="DejaVuSans-6f" transform="scale(0.015625)"/>
        <path d="M 269 3500 
L 844 3500 
L 1563 769 
L 2278 3500 
L 2956 3500 
L 3675 769 
L 4391 3500 
L 4966 3500 
L 4050 0 
L 3372 0 
L 2619 2869 
L 1863 0 
L 1184 0 
L 269 3500 
z
" id="DejaVuSans-77" transform="scale(0.015625)"/>
        <path d="M 3513 2113 
L 3513 0 
L 2938 0 
L 2938 2094 
Q 2938 2591 2744 2837 
Q 2550 3084 2163 3084 
Q 1697 3084 1428 2787 
Q 1159 2491 1159 1978 
L 1159 0 
L 581 0 
L 581 3500 
L 1159 3500 
L 1159 2956 
Q 1366 3272 1645 3428 
Q 1925 3584 2291 3584 
Q 2894 3584 3203 3211 
Q 3513 2838 3513 2113 
z
" id="DejaVuSans-6e" transform="scale(0.015625)"/>
       </defs>
       <use xlink:href="#DejaVuSans-55"/>
       <use x="73.193359" xlink:href="#DejaVuSans-6c"/>
       <use x="100.976562" xlink:href="#DejaVuSans-74"/>
       <use x="140.185547" xlink:href="#DejaVuSans-72"/>
       <use x="181.298828" xlink:href="#DejaVuSans-61"/>
       <use x="242.578125" xlink:href="#DejaVuSans-20"/>
       <use x="274.365234" xlink:href="#DejaVuSans-4d"/>
       <use x="360.644531" xlink:href="#DejaVuSans-61"/>
       <use x="421.923828" xlink:href="#DejaVuSans-72"/>
       <use x="463.037109" xlink:href="#DejaVuSans-6b"/>
       <use x="520.947266" xlink:href="#DejaVuSans-64"/>
       <use x="584.423828" xlink:href="#DejaVuSans-6f"/>
       <use x="645.605469" xlink:href="#DejaVuSans-77"/>
       <use x="727.392578" xlink:href="#DejaVuSans-6e"/>
      </g>
     </g>
    </g>
    <g id="xtick_2">
     <g id="line2d_2">
      <g>
       <use style="stroke:#000000;stroke-width:0.8;" x="368.419688" xlink:href="#m1bb7ea7a41" y="623.62425"/>
      </g>
     </g>
     <g id="text_2">
      <!-- Python-Markdown -->
      <g transform="translate(323.464219 638.222687)scale(0.1 -0.1)">
       <defs>
        <path d="M 1259 4147 
L 1259 2394 
L 2053 2394 
Q 2494 2394 2734 2622 
Q 2975 2850 2975 3272 
Q 2975 3691 2734 3919 
Q 2494 4147 2053 4147 
L 1259 4147 
z
M 628 4666 
L 2053 4666 
Q 2838 4666 3239 4311 
Q 3641 3956 3641 3272 
Q 3641 2581 3239 2228 
Q 2838 1875 2053 1875 
L 1259 1875 
L 1259 0 
L 628 0 
L 628 4666 
z
" id="DejaVuSans-50" transform="scale(0.015625)"/>
        <path d="M 2059 -325 
Q 1816 -950 1584 -1140 
Q 1353 -1331 966 -1331 
L 506 -1331 
L 506 -850 
L 844 -850 
Q 1081 -850 1212 -737 
Q 1344 -625 1503 -206 
L 1606 56 
L 191 3500 
L 800 3500 
L 1894 763 
L 2988 3500 
L 3597 3500 
L 2059 -325 
z
" id="DejaVuSans-79" transform="scale(0.015625)"/>
        <path d="M 3513 2113 
L 3513 0 
L 2938 0 
L 2938 2094 
Q 2938 2591 2744 2837 
Q 2550 3084 2163 3084 
Q 1697 3084 1428 2787 
Q 1159 2491 1159 1978 
L 1159 0 
L 581 0 
L 581 4863 
L 1159 4863 
L 1159 2956 
Q 1366 3272 1645 3428 
Q 1925 3584 2291 3584 
Q 2894 3584 3203 3211 
Q 3513 2838 3513 2113 
z
" id="DejaVuSans-68" transform="scale(0.015625)"/>
        <path d="M 313 2009 
L 1997 2009 
L 1997 1497 
L 313 1497 
L 313 2009 
z
" id="DejaVuSans-2d" transform="scale(0.015625)"/>
       </defs>
       <use xlink:href="#DejaVuSans-50"/>
       <use x="60.302734" xlink:href="#DejaVuSans-79"/>
       <use x="119.482422" xlink:href="#DejaVuSans-74"/>
       <use x="158.691406" xlink:href="#DejaVuSans-68"/>
       <use x="222.070312" xlink:href="#DejaVuSans-6f"/>
       <use x="283.251953" xlink:href="#DejaVuSans-6e"/>
       <use x="346.630859" xlink:href="#DejaVuSans-2d"/>
       <use x="382.714844" xlink:href="#DejaVuSans-4d"/>
       <use x="468.994141" xlink:href="#DejaVuSans-61"/>
       <use x="530.273438" xlink:href="#DejaVuSans-72"/>
       <use x="571.386719" xlink:href="#DejaVuSans-6b"/>
       <use x="629.296875" xlink:href="#DejaVuSans-64"/>
       <use x="692.773438" xlink:href="#DejaVuSans-6f"/>
       <use x="753.955078" xlink:href="#DejaVuSans-77"/>
       <use x="835.742188" xlink:href="#DejaVuSans-6e"/>
      </g>
     </g>
    </g>
    <g id="xtick_3">
     <g id="line2d_3">
      <g>
       <use style="stroke:#000000;stroke-width:0.8;" x="531.471636" xlink:href="#m1bb7ea7a41" y="623.62425"/>
      </g>
     </g>
     <g id="text_3">
      <!-- Python-Markdown2 -->
      <g transform="translate(483.334917 638.222687)scale(0.1 -0.1)">
       <defs>
        <path d="M 1228 531 
L 3431 531 
L 3431 0 
L 469 0 
L 469 531 
Q 828 903 1448 1529 
Q 2069 2156 2228 2338 
Q 2531 2678 2651 2914 
Q 2772 3150 2772 3378 
Q 2772 3750 2511 3984 
Q 2250 4219 1831 4219 
Q 1534 4219 1204 4116 
Q 875 4013 500 3803 
L 500 4441 
Q 881 4594 1212 4672 
Q 1544 4750 1819 4750 
Q 2544 4750 2975 4387 
Q 3406 4025 3406 3419 
Q 3406 3131 3298 2873 
Q 3191 2616 2906 2266 
Q 2828 2175 2409 1742 
Q 1991 1309 1228 531 
z
" id="DejaVuSans-32" transform="scale(0.015625)"/>
       </defs>
       <use xlink:href="#DejaVuSans-50"/>
       <use x="60.302734" xlink:href="#DejaVuSans-79"/>
       <use x="119.482422" xlink:href="#DejaVuSans-74"/>
       <use x="158.691406" xlink:href="#DejaVuSans-68"/>
       <use x="222.070312" xlink:href="#DejaVuSans-6f"/>
       <use x="283.251953" xlink:href="#DejaVuSans-6e"/>
       <use x="346.630859" xlink:href="#DejaVuSans-2d"/>
       <use x="382.714844" xlink:href="#DejaVuSans-4d"/>
       <use x="468.994141" xlink:href="#DejaVuSans-61"/>
       <use x="530.273438" xlink:href="#DejaVuSans-72"/>
       <use x="571.386719" xlink:href="#DejaVuSans-6b"/>
       <use x="629.296875" xlink:href="#DejaVuSans-64"/>
       <use x="692.773438" xlink:href="#DejaVuSans-6f"/>
       <use x="753.955078" xlink:href="#DejaVuSans-77"/>
       <use x="835.742188" xlink:href="#DejaVuSans-6e"/>
       <use x="899.121094" xlink:href="#DejaVuSans-32"/>
      </g>
     </g>
    </g>
    <g id="text_4">
     <!-- Markdown parsers -->
     <g transform="translate(322.375156 651.900812)scale(0.1 -0.1)">
      <defs>
       <path d="M 1159 525 
L 1159 -1331 
L 581 -1331 
L 581 3500 
L 1159 3500 
L 1159 2969 
Q 1341 3281 1617 3432 
Q 1894 3584 2278 3584 
Q 2916 3584 3314 3078 
Q 3713 2572 3713 1747 
Q 3713 922 3314 415 
Q 2916 -91 2278 -91 
Q 1894 -91 1617 61 
Q 1341 213 1159 525 
z
M 3116 1747 
Q 3116 2381 2855 2742 
Q 2594 3103 2138 3103 
Q 1681 3103 1420 2742 
Q 1159 2381 1159 1747 
Q 1159 1113 1420 752 
Q 1681 391 2138 391 
Q 2594 391 2855 752 
Q 3116 1113 3116 1747 
z
" id="DejaVuSans-70" transform="scale(0.015625)"/>
       <path d="M 2834 3397 
L 2834 2853 
Q 2591 2978 2328 3040 
Q 2066 3103 1784 3103 
Q 1356 3103 1142 2972 
Q 928 2841 928 2578 
Q 928 2378 1081 2264 
Q 1234 2150 1697 2047 
L 1894 2003 
Q 2506 1872 2764 1633 
Q 3022 1394 3022 966 
Q 3022 478 2636 193 
Q 2250 -91 1575 -91 
Q 1294 -91 989 -36 
Q 684 19 347 128 
L 347 722 
Q 666 556 975 473 
Q 1284 391 1588 391 
Q 1994 391 2212 530 
Q 2431 669 2431 922 
Q 2431 1156 2273 1281 
Q 2116 1406 1581 1522 
L 1381 1569 
Q 847 1681 609 1914 
Q 372 2147 372 2553 
Q 372 3047 722 3315 
Q 1072 3584 1716 3584 
Q 2034 3584 2315 3537 
Q 2597 3491 2834 3397 
z
" id="DejaVuSans-73" transform="scale(0.015625)"/>
       <path d="M 3597 1894 
L 3597 1613 
L 953 1613 
Q 991 1019 1311 708 
Q 1631 397 2203 397 
Q 2534 397 2845 478 
Q 3156 559 3463 722 
L 3463 178 
Q 3153 47 2828 -22 
Q 2503 -91 2169 -91 
Q 1331 -91 842 396 
Q 353 884 353 1716 
Q 353 2575 817 3079 
Q 1281 3584 2069 3584 
Q 2775 3584 3186 3129 
Q 3597 2675 3597 1894 
z
M 3022 2063 
Q 3016 2534 2758 2815 
Q 2500 3097 2075 3097 
Q 1594 3097 1305 2825 
Q 1016 2553 972 2059 
L 3022 2063 
z
" id="DejaVuSans-65" transform="scale(0.015625)"/>
      </defs>
      <use xlink:href="#DejaVuSans-4d"/>
      <use x="86.279297" xlink:href="#DejaVuSans-61"/>
      <use x="147.558594" xlink:href="#DejaVuSans-72"/>
      <use x="188.671875" xlink:href="#DejaVuSans-6b"/>
      <use x="246.582031" xlink:href="#DejaVuSans-64"/>
      <use x="310.058594" xlink:href="#DejaVuSans-6f"/>
      <use x="371.240234" xlink:href="#DejaVuSans-77"/>
      <use x="453.027344" xlink:href="#DejaVuSans-6e"/>
      <use x="516.40625" xlink:href="#DejaVuSans-20"/>
      <use x="548.193359" xlink:href="#DejaVuSans-70"/>
      <use x="611.669922" xlink:href="#DejaVuSans-61"/>
      <use x="672.949219" xlink:href="#DejaVuSans-72"/>
      <use x="714.0625" xlink:href="#DejaVuSans-73"/>
      <use x="766.162109" xlink:href="#DejaVuSans-65"/>
      <use x="827.685547" xlink:href="#DejaVuSans-72"/>
      <use x="868.798828" xlink:href="#DejaVuSans-73"/>
     </g>
    </g>
   </g>
   <g id="matplotlib.axis_2">
    <g id="ytick_1">
     <g id="line2d_4">
      <defs>
       <path d="M 0 0 
L -3.5 0 
" id="m0c4276db10" style="stroke:#000000;stroke-width:0.8;"/>
      </defs>
      <g>
       <use style="stroke:#000000;stroke-width:0.8;" x="117.319687" xlink:href="#m0c4276db10" y="623.62425"/>
      </g>
     </g>
     <g id="text_5">
      <!-- 0.00 -->
      <g transform="translate(88.054062 627.423469)scale(0.1 -0.1)">
       <defs>
        <path d="M 2034 4250 
Q 1547 4250 1301 3770 
Q 1056 3291 1056 2328 
Q 1056 1369 1301 889 
Q 1547 409 2034 409 
Q 2525 409 2770 889 
Q 3016 1369 3016 2328 
Q 3016 3291 2770 3770 
Q 2525 4250 2034 4250 
z
M 2034 4750 
Q 2819 4750 3233 4129 
Q 3647 3509 3647 2328 
Q 3647 1150 3233 529 
Q 2819 -91 2034 -91 
Q 1250 -91 836 529 
Q 422 1150 422 2328 
Q 422 3509 836 4129 
Q 1250 4750 2034 4750 
z
" id="DejaVuSans-30" transform="scale(0.015625)"/>
        <path d="M 684 794 
L 1344 794 
L 1344 0 
L 684 0 
L 684 794 
z
" id="DejaVuSans-2e" transform="scale(0.015625)"/>
       </defs>
       <use xlink:href="#DejaVuSans-30"/>
       <use x="63.623047" xlink:href="#DejaVuSans-2e"/>
       <use x="95.410156" xlink:href="#DejaVuSans-30"/>
       <use x="159.033203" xlink:href="#DejaVuSans-30"/>
      </g>
     </g>
    </g>
    <g id="ytick_2">
     <g id="line2d_5">
      <g>
       <use style="stroke:#000000;stroke-width:0.8;" x="117.319687" xlink:href="#m0c4276db10" y="578.737424"/>
      </g>
     </g>
     <g id="text_6">
      <!-- 0.25 -->
      <g transform="translate(88.054062 582.536642)scale(0.1 -0.1)">
       <defs>
        <path d="M 691 4666 
L 3169 4666 
L 3169 4134 
L 1269 4134 
L 1269 2991 
Q 1406 3038 1543 3061 
Q 1681 3084 1819 3084 
Q 2600 3084 3056 2656 
Q 3513 2228 3513 1497 
Q 3513 744 3044 326 
Q 2575 -91 1722 -91 
Q 1428 -91 1123 -41 
Q 819 9 494 109 
L 494 744 
Q 775 591 1075 516 
Q 1375 441 1709 441 
Q 2250 441 2565 725 
Q 2881 1009 2881 1497 
Q 2881 1984 2565 2268 
Q 2250 2553 1709 2553 
Q 1456 2553 1204 2497 
Q 953 2441 691 2322 
L 691 4666 
z
" id="DejaVuSans-35" transform="scale(0.015625)"/>
       </defs>
       <use xlink:href="#DejaVuSans-30"/>
       <use x="63.623047" xlink:href="#DejaVuSans-2e"/>
       <use x="95.410156" xlink:href="#DejaVuSans-32"/>
       <use x="159.033203" xlink:href="#DejaVuSans-35"/>
      </g>
     </g>
    </g>
    <g id="ytick_3">
     <g id="line2d_6">
      <g>
       <use style="stroke:#000000;stroke-width:0.8;" x="117.319687" xlink:href="#m0c4276db10" y="533.850597"/>
      </g>
     </g>
     <g id="text_7">
      <!-- 0.50 -->
      <g transform="translate(88.054062 537.649816)scale(0.1 -0.1)">
       <use xlink:href="#DejaVuSans-30"/>
       <use x="63.623047" xlink:href="#DejaVuSans-2e"/>
       <use x="95.410156" xlink:href="#DejaVuSans-35"/>
       <use x="159.033203" xlink:href="#DejaVuSans-30"/>
      </g>
     </g>
    </g>
    <g id="ytick_4">
     <g id="line2d_7">
      <g>
       <use style="stroke:#000000;stroke-width:0.8;" x="117.319687" xlink:href="#m0c4276db10" y="488.963771"/>
      </g>
     </g>
     <g id="text_8">
      <!-- 0.75 -->
      <g transform="translate(88.054062 492.76299)scale(0.1 -0.1)">
       <defs>
        <path d="M 525 4666 
L 3525 4666 
L 3525 4397 
L 1831 0 
L 1172 0 
L 2766 4134 
L 525 4134 
L 525 4666 
z
" id="DejaVuSans-37" transform="scale(0.015625)"/>
       </defs>
       <use xlink:href="#DejaVuSans-30"/>
       <use x="63.623047" xlink:href="#DejaVuSans-2e"/>
       <use x="95.410156" xlink:href="#DejaVuSans-37"/>
       <use x="159.033203" xlink:href="#DejaVuSans-35"/>
      </g>
     </g>
    </g>
    <g id="ytick_5">
     <g id="line2d_8">
      <g>
       <use style="stroke:#000000;stroke-width:0.8;" x="117.319687" xlink:href="#m0c4276db10" y="444.076945"/>
      </g>
     </g>
     <g id="text_9">
      <!-- 1.00 -->
      <g transform="translate(88.054062 447.876163)scale(0.1 -0.1)">
       <defs>
        <path d="M 794 531 
L 1825 531 
L 1825 4091 
L 703 3866 
L 703 4441 
L 1819 4666 
L 2450 4666 
L 2450 531 
L 3481 531 
L 3481 0 
L 794 0 
L 794 531 
z
" id="DejaVuSans-31" transform="scale(0.015625)"/>
       </defs>
       <use xlink:href="#DejaVuSans-31"/>
       <use x="63.623047" xlink:href="#DejaVuSans-2e"/>
       <use x="95.410156" xlink:href="#DejaVuSans-30"/>
       <use x="159.033203" xlink:href="#DejaVuSans-30"/>
      </g>
     </g>
    </g>
    <g id="ytick_6">
     <g id="line2d_9">
      <g>
       <use style="stroke:#000000;stroke-width:0.8;" x="117.319687" xlink:href="#m0c4276db10" y="399.190118"/>
      </g>
     </g>
     <g id="text_10">
      <!-- 1.25 -->
      <g transform="translate(88.054062 402.989337)scale(0.1 -0.1)">
       <use xlink:href="#DejaVuSans-31"/>
       <use x="63.623047" xlink:href="#DejaVuSans-2e"/>
       <use x="95.410156" xlink:href="#DejaVuSans-32"/>
       <use x="159.033203" xlink:href="#DejaVuSans-35"/>
      </g>
     </g>
    </g>
    <g id="ytick_7">
     <g id="line2d_10">
      <g>
       <use style="stroke:#000000;stroke-width:0.8;" x="117.319687" xlink:href="#m0c4276db10" y="354.303292"/>
      </g>
     </g>
     <g id="text_11">
      <!-- 1.50 -->
      <g transform="translate(88.054062 358.102511)scale(0.1 -0.1)">
       <use xlink:href="#DejaVuSans-31"/>
       <use x="63.623047" xlink:href="#DejaVuSans-2e"/>
       <use x="95.410156" xlink:href="#DejaVuSans-35"/>
       <use x="159.033203" xlink:href="#DejaVuSans-30"/>
      </g>
     </g>
    </g>
    <g id="ytick_8">
     <g id="line2d_11">
      <g>
       <use style="stroke:#000000;stroke-width:0.8;" x="117.319687" xlink:href="#m0c4276db10" y="309.416466"/>
      </g>
     </g>
     <g id="text_12">
      <!-- 1.75 -->
      <g transform="translate(88.054062 313.215684)scale(0.1 -0.1)">
       <use xlink:href="#DejaVuSans-31"/>
       <use x="63.623047" xlink:href="#DejaVuSans-2e"/>
       <use x="95.410156" xlink:href="#DejaVuSans-37"/>
       <use x="159.033203" xlink:href="#DejaVuSans-35"/>
      </g>
     </g>
    </g>
    <g id="ytick_9">
     <g id="line2d_12">
      <g>
       <use style="stroke:#000000;stroke-width:0.8;" x="117.319687" xlink:href="#m0c4276db10" y="264.529639"/>
      </g>
     </g>
     <g id="text_13">
      <!-- 2.00 -->
      <g transform="translate(88.054062 268.328858)scale(0.1 -0.1)">
       <use xlink:href="#DejaVuSans-32"/>
       <use x="63.623047" xlink:href="#DejaVuSans-2e"/>
       <use x="95.410156" xlink:href="#DejaVuSans-30"/>
       <use x="159.033203" xlink:href="#DejaVuSans-30"/>
      </g>
     </g>
    </g>
    <g id="text_14">
     <!-- MB/s -->
     <g transform="translate(81.974375 441.617844)rotate(-90)scale(0.1 -0.1)">
      <defs>
       <path d="M 1259 2228 
L 1259 519 
L 2272 519 
Q 2781 519 3026 730 
Q 3272 941 3272 1375 
Q 3272 1813 3026 2020 
Q 2781 2228 2272 2228 
L 1259 2228 
z
M 1259 4147 
L 1259 2741 
L 2194 2741 
Q 2656 2741 2882 2914 
Q 3109 3088 3109 3444 
Q 3109 3797 2882 3972 
Q 2656 4147 2194 4147 
L 1259 4147 
z
M 628 4666 
L 2241 4666 
Q 2963 4666 3353 4366 
Q 3744 4066 3744 3513 
Q 3744 3084 3544 2831 
Q 3344 2578 2956 2516 
Q 3422 2416 3680 2098 
Q 3938 1781 3938 1306 
Q 3938 681 3513 340 
Q 3088 0 2303 0 
L 628 0 
L 628 4666 
z
" id="DejaVuSans-42" transform="scale(0.015625)"/>
       <path d="M 1625 4666 
L 2156 4666 
L 531 -594 
L 0 -594 
L 1625 4666 
z
" id="DejaVuSans-2f" transform="scale(0.015625)"/>
      </defs>
      <use xlink:href="#DejaVuSans-4d"/>
      <use x="86.279297" xlink:href="#DejaVuSans-42"/>
      <use x="154.882812" xlink:href="#DejaVuSans-2f"/>
      <use x="188.574219" xlink:href="#DejaVuSans-73"/>
     </g>
    </g>
   </g>
   <g id="patch_6">
    <path d="M 117.319687 623.62425 
L 117.319687 235.54425 
" style="fill:none;stroke:#000000;stroke-linecap:square;stroke-linejoin:miter;stroke-width:0.8;"/>
   </g>
   <g id="patch_7">
    <path d="M 619.519688 623.62425 
L 619.519688 235.54425 
" style="fill:none;stroke:#000000;stroke-linecap:square;stroke-linejoin:miter;stroke-width:0.8;"/>
   </g>
   <g id="patch_8">
    <path d="M 117.319687 623.62425 
L 619.519688 623.62425 
" style="fill:none;stroke:#000000;stroke-linecap:square;stroke-linejoin:miter;stroke-width:0.8;"/>
   </g>
   <g id="patch_9">
    <path d="M 117.319687 235.54425 
L 619.519688 235.54425 
" style="fill:none;stroke:#000000;stroke-linecap:square;stroke-linejoin:miter;stroke-width:0.8;"/>
   </g>
   <g id="text_15">
    <!-- Test Machine:  -->
    <g transform="translate(319.790625 81.118125)scale(0.12 -0.12)">
     <defs>
      <path d="M 31 4666 
L 4331 4666 
L 4331 3756 
L 2784 3756 
L 2784 0 
L 1581 0 
L 1581 3756 
L 31 3756 
L 31 4666 
z
" id="DejaVuSans-Bold-54" transform="scale(0.015625)"/>
      <path d="M 4031 1759 
L 4031 1441 
L 1416 1441 
Q 1456 1047 1700 850 
Q 1944 653 2381 653 
Q 2734 653 3104 758 
Q 3475 863 3866 1075 
L 3866 213 
Q 3469 63 3072 -14 
Q 2675 -91 2278 -91 
Q 1328 -91 801 392 
Q 275 875 275 1747 
Q 275 2603 792 3093 
Q 1309 3584 2216 3584 
Q 3041 3584 3536 3087 
Q 4031 2591 4031 1759 
z
M 2881 2131 
Q 2881 2450 2695 2645 
Q 2509 2841 2209 2841 
Q 1884 2841 1681 2658 
Q 1478 2475 1428 2131 
L 2881 2131 
z
" id="DejaVuSans-Bold-65" transform="scale(0.015625)"/>
      <path d="M 3272 3391 
L 3272 2541 
Q 2913 2691 2578 2766 
Q 2244 2841 1947 2841 
Q 1628 2841 1473 2761 
Q 1319 2681 1319 2516 
Q 1319 2381 1436 2309 
Q 1553 2238 1856 2203 
L 2053 2175 
Q 2913 2066 3209 1816 
Q 3506 1566 3506 1031 
Q 3506 472 3093 190 
Q 2681 -91 1863 -91 
Q 1516 -91 1145 -36 
Q 775 19 384 128 
L 384 978 
Q 719 816 1070 734 
Q 1422 653 1784 653 
Q 2113 653 2278 743 
Q 2444 834 2444 1013 
Q 2444 1163 2330 1236 
Q 2216 1309 1875 1350 
L 1678 1375 
Q 931 1469 631 1722 
Q 331 1975 331 2491 
Q 331 3047 712 3315 
Q 1094 3584 1881 3584 
Q 2191 3584 2531 3537 
Q 2872 3491 3272 3391 
z
" id="DejaVuSans-Bold-73" transform="scale(0.015625)"/>
      <path d="M 1759 4494 
L 1759 3500 
L 2913 3500 
L 2913 2700 
L 1759 2700 
L 1759 1216 
Q 1759 972 1856 886 
Q 1953 800 2241 800 
L 2816 800 
L 2816 0 
L 1856 0 
Q 1194 0 917 276 
Q 641 553 641 1216 
L 641 2700 
L 84 2700 
L 84 3500 
L 641 3500 
L 641 4494 
L 1759 4494 
z
" id="DejaVuSans-Bold-74" transform="scale(0.015625)"/>
      <path id="DejaVuSans-Bold-20" transform="scale(0.015625)"/>
      <path d="M 588 4666 
L 2119 4666 
L 3181 2169 
L 4250 4666 
L 5778 4666 
L 5778 0 
L 4641 0 
L 4641 3413 
L 3566 897 
L 2803 897 
L 1728 3413 
L 1728 0 
L 588 0 
L 588 4666 
z
" id="DejaVuSans-Bold-4d" transform="scale(0.015625)"/>
      <path d="M 2106 1575 
Q 1756 1575 1579 1456 
Q 1403 1338 1403 1106 
Q 1403 894 1545 773 
Q 1688 653 1941 653 
Q 2256 653 2472 879 
Q 2688 1106 2688 1447 
L 2688 1575 
L 2106 1575 
z
M 3816 1997 
L 3816 0 
L 2688 0 
L 2688 519 
Q 2463 200 2181 54 
Q 1900 -91 1497 -91 
Q 953 -91 614 226 
Q 275 544 275 1050 
Q 275 1666 698 1953 
Q 1122 2241 2028 2241 
L 2688 2241 
L 2688 2328 
Q 2688 2594 2478 2717 
Q 2269 2841 1825 2841 
Q 1466 2841 1156 2769 
Q 847 2697 581 2553 
L 581 3406 
Q 941 3494 1303 3539 
Q 1666 3584 2028 3584 
Q 2975 3584 3395 3211 
Q 3816 2838 3816 1997 
z
" id="DejaVuSans-Bold-61" transform="scale(0.015625)"/>
      <path d="M 3366 3391 
L 3366 2478 
Q 3138 2634 2908 2709 
Q 2678 2784 2431 2784 
Q 1963 2784 1702 2511 
Q 1441 2238 1441 1747 
Q 1441 1256 1702 982 
Q 1963 709 2431 709 
Q 2694 709 2930 787 
Q 3166 866 3366 1019 
L 3366 103 
Q 3103 6 2833 -42 
Q 2563 -91 2291 -91 
Q 1344 -91 809 395 
Q 275 881 275 1747 
Q 275 2613 809 3098 
Q 1344 3584 2291 3584 
Q 2566 3584 2833 3536 
Q 3100 3488 3366 3391 
z
" id="DejaVuSans-Bold-63" transform="scale(0.015625)"/>
      <path d="M 4056 2131 
L 4056 0 
L 2931 0 
L 2931 347 
L 2931 1625 
Q 2931 2084 2911 2256 
Q 2891 2428 2841 2509 
Q 2775 2619 2662 2680 
Q 2550 2741 2406 2741 
Q 2056 2741 1856 2470 
Q 1656 2200 1656 1722 
L 1656 0 
L 538 0 
L 538 4863 
L 1656 4863 
L 1656 2988 
Q 1909 3294 2193 3439 
Q 2478 3584 2822 3584 
Q 3428 3584 3742 3212 
Q 4056 2841 4056 2131 
z
" id="DejaVuSans-Bold-68" transform="scale(0.015625)"/>
      <path d="M 538 3500 
L 1656 3500 
L 1656 0 
L 538 0 
L 538 3500 
z
M 538 4863 
L 1656 4863 
L 1656 3950 
L 538 3950 
L 538 4863 
z
" id="DejaVuSans-Bold-69" transform="scale(0.015625)"/>
      <path d="M 4056 2131 
L 4056 0 
L 2931 0 
L 2931 347 
L 2931 1631 
Q 2931 2084 2911 2256 
Q 2891 2428 2841 2509 
Q 2775 2619 2662 2680 
Q 2550 2741 2406 2741 
Q 2056 2741 1856 2470 
Q 1656 2200 1656 1722 
L 1656 0 
L 538 0 
L 538 3500 
L 1656 3500 
L 1656 2988 
Q 1909 3294 2193 3439 
Q 2478 3584 2822 3584 
Q 3428 3584 3742 3212 
Q 4056 2841 4056 2131 
z
" id="DejaVuSans-Bold-6e" transform="scale(0.015625)"/>
      <path d="M 716 3500 
L 1844 3500 
L 1844 2291 
L 716 2291 
L 716 3500 
z
M 716 1209 
L 1844 1209 
L 1844 0 
L 716 0 
L 716 1209 
z
" id="DejaVuSans-Bold-3a" transform="scale(0.015625)"/>
     </defs>
     <use xlink:href="#DejaVuSans-Bold-54"/>
     <use x="54.962891" xlink:href="#DejaVuSans-Bold-65"/>
     <use x="122.785156" xlink:href="#DejaVuSans-Bold-73"/>
     <use x="182.306641" xlink:href="#DejaVuSans-Bold-74"/>
     <use x="230.109375" xlink:href="#DejaVuSans-Bold-20"/>
     <use x="264.923828" xlink:href="#DejaVuSans-Bold-4d"/>
     <use x="364.435547" xlink:href="#DejaVuSans-Bold-61"/>
     <use x="431.916016" xlink:href="#DejaVuSans-Bold-63"/>
     <use x="491.193359" xlink:href="#DejaVuSans-Bold-68"/>
     <use x="562.384766" xlink:href="#DejaVuSans-Bold-69"/>
     <use x="596.662109" xlink:href="#DejaVuSans-Bold-6e"/>
     <use x="667.853516" xlink:href="#DejaVuSans-Bold-65"/>
     <use x="735.675781" xlink:href="#DejaVuSans-Bold-3a"/>
     <use x="775.666016" xlink:href="#DejaVuSans-Bold-20"/>
    </g>
    <!-- Linux 5.8.0-1041-azure x86_64 #44~20.04.1-Ubuntu SMP Fri Aug 20 20:41:09 UTC 2021 -->
    <g transform="translate(72 94.5555)scale(0.12 -0.12)">
     <defs>
      <path d="M 588 4666 
L 1791 4666 
L 1791 909 
L 3903 909 
L 3903 0 
L 588 0 
L 588 4666 
z
" id="DejaVuSans-Bold-4c" transform="scale(0.015625)"/>
      <path d="M 500 1363 
L 500 3500 
L 1625 3500 
L 1625 3150 
Q 1625 2866 1622 2436 
Q 1619 2006 1619 1863 
Q 1619 1441 1641 1255 
Q 1663 1069 1716 984 
Q 1784 875 1895 815 
Q 2006 756 2150 756 
Q 2500 756 2700 1025 
Q 2900 1294 2900 1772 
L 2900 3500 
L 4019 3500 
L 4019 0 
L 2900 0 
L 2900 506 
Q 2647 200 2364 54 
Q 2081 -91 1741 -91 
Q 1134 -91 817 281 
Q 500 653 500 1363 
z
" id="DejaVuSans-Bold-75" transform="scale(0.015625)"/>
      <path d="M 1422 1791 
L 159 3500 
L 1344 3500 
L 2059 2463 
L 2784 3500 
L 3969 3500 
L 2706 1797 
L 4031 0 
L 2847 0 
L 2059 1106 
L 1281 0 
L 97 0 
L 1422 1791 
z
" id="DejaVuSans-Bold-78" transform="scale(0.015625)"/>
      <path d="M 678 4666 
L 3669 4666 
L 3669 3781 
L 1638 3781 
L 1638 3059 
Q 1775 3097 1914 3117 
Q 2053 3138 2203 3138 
Q 3056 3138 3531 2711 
Q 4006 2284 4006 1522 
Q 4006 766 3489 337 
Q 2972 -91 2053 -91 
Q 1656 -91 1267 -14 
Q 878 63 494 219 
L 494 1166 
Q 875 947 1217 837 
Q 1559 728 1863 728 
Q 2300 728 2551 942 
Q 2803 1156 2803 1522 
Q 2803 1891 2551 2103 
Q 2300 2316 1863 2316 
Q 1603 2316 1309 2248 
Q 1016 2181 678 2041 
L 678 4666 
z
" id="DejaVuSans-Bold-35" transform="scale(0.015625)"/>
      <path d="M 653 1209 
L 1778 1209 
L 1778 0 
L 653 0 
L 653 1209 
z
" id="DejaVuSans-Bold-2e" transform="scale(0.015625)"/>
      <path d="M 2228 2088 
Q 1891 2088 1709 1903 
Q 1528 1719 1528 1375 
Q 1528 1031 1709 848 
Q 1891 666 2228 666 
Q 2563 666 2741 848 
Q 2919 1031 2919 1375 
Q 2919 1722 2741 1905 
Q 2563 2088 2228 2088 
z
M 1350 2484 
Q 925 2613 709 2878 
Q 494 3144 494 3541 
Q 494 4131 934 4440 
Q 1375 4750 2228 4750 
Q 3075 4750 3515 4442 
Q 3956 4134 3956 3541 
Q 3956 3144 3739 2878 
Q 3522 2613 3097 2484 
Q 3572 2353 3814 2058 
Q 4056 1763 4056 1313 
Q 4056 619 3595 264 
Q 3134 -91 2228 -91 
Q 1319 -91 855 264 
Q 391 619 391 1313 
Q 391 1763 633 2058 
Q 875 2353 1350 2484 
z
M 1631 3419 
Q 1631 3141 1786 2991 
Q 1941 2841 2228 2841 
Q 2509 2841 2662 2991 
Q 2816 3141 2816 3419 
Q 2816 3697 2662 3845 
Q 2509 3994 2228 3994 
Q 1941 3994 1786 3844 
Q 1631 3694 1631 3419 
z
" id="DejaVuSans-Bold-38" transform="scale(0.015625)"/>
      <path d="M 2944 2338 
Q 2944 3213 2780 3570 
Q 2616 3928 2228 3928 
Q 1841 3928 1675 3570 
Q 1509 3213 1509 2338 
Q 1509 1453 1675 1090 
Q 1841 728 2228 728 
Q 2613 728 2778 1090 
Q 2944 1453 2944 2338 
z
M 4147 2328 
Q 4147 1169 3647 539 
Q 3147 -91 2228 -91 
Q 1306 -91 806 539 
Q 306 1169 306 2328 
Q 306 3491 806 4120 
Q 1306 4750 2228 4750 
Q 3147 4750 3647 4120 
Q 4147 3491 4147 2328 
z
" id="DejaVuSans-Bold-30" transform="scale(0.015625)"/>
      <path d="M 347 2297 
L 2309 2297 
L 2309 1388 
L 347 1388 
L 347 2297 
z
" id="DejaVuSans-Bold-2d" transform="scale(0.015625)"/>
      <path d="M 750 831 
L 1813 831 
L 1813 3847 
L 722 3622 
L 722 4441 
L 1806 4666 
L 2950 4666 
L 2950 831 
L 4013 831 
L 4013 0 
L 750 0 
L 750 831 
z
" id="DejaVuSans-Bold-31" transform="scale(0.015625)"/>
      <path d="M 2356 3675 
L 1038 1722 
L 2356 1722 
L 2356 3675 
z
M 2156 4666 
L 3494 4666 
L 3494 1722 
L 4159 1722 
L 4159 850 
L 3494 850 
L 3494 0 
L 2356 0 
L 2356 850 
L 288 850 
L 288 1881 
L 2156 4666 
z
" id="DejaVuSans-Bold-34" transform="scale(0.015625)"/>
      <path d="M 366 3500 
L 3419 3500 
L 3419 2719 
L 1575 800 
L 3419 800 
L 3419 0 
L 288 0 
L 288 781 
L 2131 2700 
L 366 2700 
L 366 3500 
z
" id="DejaVuSans-Bold-7a" transform="scale(0.015625)"/>
      <path d="M 3138 2547 
Q 2991 2616 2845 2648 
Q 2700 2681 2553 2681 
Q 2122 2681 1889 2404 
Q 1656 2128 1656 1613 
L 1656 0 
L 538 0 
L 538 3500 
L 1656 3500 
L 1656 2925 
Q 1872 3269 2151 3426 
Q 2431 3584 2822 3584 
Q 2878 3584 2943 3579 
Q 3009 3575 3134 3559 
L 3138 2547 
z
" id="DejaVuSans-Bold-72" transform="scale(0.015625)"/>
      <path d="M 2316 2303 
Q 2000 2303 1842 2098 
Q 1684 1894 1684 1484 
Q 1684 1075 1842 870 
Q 2000 666 2316 666 
Q 2634 666 2792 870 
Q 2950 1075 2950 1484 
Q 2950 1894 2792 2098 
Q 2634 2303 2316 2303 
z
M 3803 4544 
L 3803 3681 
Q 3506 3822 3243 3889 
Q 2981 3956 2731 3956 
Q 2194 3956 1894 3657 
Q 1594 3359 1544 2772 
Q 1750 2925 1990 3001 
Q 2231 3078 2516 3078 
Q 3231 3078 3670 2659 
Q 4109 2241 4109 1563 
Q 4109 813 3618 361 
Q 3128 -91 2303 -91 
Q 1394 -91 895 523 
Q 397 1138 397 2266 
Q 397 3422 980 4083 
Q 1563 4744 2578 4744 
Q 2900 4744 3203 4694 
Q 3506 4644 3803 4544 
z
" id="DejaVuSans-Bold-36" transform="scale(0.015625)"/>
      <path d="M 3200 -916 
L 3200 -1509 
L 0 -1509 
L 0 -916 
L 3200 -916 
z
" id="DejaVuSans-Bold-5f" transform="scale(0.015625)"/>
      <path d="M 2847 4594 
L 2547 3391 
L 3372 3391 
L 3675 4594 
L 4366 4594 
L 4063 3391 
L 4928 3391 
L 4928 2725 
L 3897 2725 
L 3681 1869 
L 4569 1869 
L 4569 1197 
L 3519 1197 
L 3219 0 
L 2528 0 
L 2828 1197 
L 2003 1197 
L 1703 0 
L 1006 0 
L 1306 1197 
L 434 1197 
L 434 1869 
L 1459 1869 
L 1678 2725 
L 794 2725 
L 794 3391 
L 1850 3391 
L 2150 4594 
L 2847 4594 
z
M 3200 2725 
L 2375 2725 
L 2156 1869 
L 2981 1869 
L 3200 2725 
z
" id="DejaVuSans-Bold-23" transform="scale(0.015625)"/>
      <path d="M 4684 2656 
L 4684 1894 
Q 4353 1644 4073 1536 
Q 3794 1428 3494 1428 
Q 3159 1428 2713 1609 
Q 2669 1628 2644 1638 
Q 2622 1647 2575 1666 
Q 2091 1856 1797 1856 
Q 1522 1856 1253 1736 
Q 984 1616 678 1356 
L 678 2119 
Q 1013 2369 1291 2476 
Q 1569 2584 1869 2584 
Q 2203 2584 2650 2403 
Q 2697 2384 2719 2375 
Q 2741 2366 2788 2347 
Q 3272 2156 3566 2156 
Q 3834 2156 4098 2273 
Q 4363 2391 4684 2656 
z
" id="DejaVuSans-Bold-7e" transform="scale(0.015625)"/>
      <path d="M 1844 884 
L 3897 884 
L 3897 0 
L 506 0 
L 506 884 
L 2209 2388 
Q 2438 2594 2547 2791 
Q 2656 2988 2656 3200 
Q 2656 3528 2436 3728 
Q 2216 3928 1850 3928 
Q 1569 3928 1234 3808 
Q 900 3688 519 3450 
L 519 4475 
Q 925 4609 1322 4679 
Q 1719 4750 2100 4750 
Q 2938 4750 3402 4381 
Q 3866 4013 3866 3353 
Q 3866 2972 3669 2642 
Q 3472 2313 2841 1759 
L 1844 884 
z
" id="DejaVuSans-Bold-32" transform="scale(0.015625)"/>
      <path d="M 588 4666 
L 1791 4666 
L 1791 1869 
Q 1791 1291 1980 1042 
Q 2169 794 2597 794 
Q 3028 794 3217 1042 
Q 3406 1291 3406 1869 
L 3406 4666 
L 4609 4666 
L 4609 1869 
Q 4609 878 4112 393 
Q 3616 -91 2597 -91 
Q 1581 -91 1084 393 
Q 588 878 588 1869 
L 588 4666 
z
" id="DejaVuSans-Bold-55" transform="scale(0.015625)"/>
      <path d="M 2400 722 
Q 2759 722 2948 984 
Q 3138 1247 3138 1747 
Q 3138 2247 2948 2509 
Q 2759 2772 2400 2772 
Q 2041 2772 1848 2508 
Q 1656 2244 1656 1747 
Q 1656 1250 1848 986 
Q 2041 722 2400 722 
z
M 1656 2988 
Q 1888 3294 2169 3439 
Q 2450 3584 2816 3584 
Q 3463 3584 3878 3070 
Q 4294 2556 4294 1747 
Q 4294 938 3878 423 
Q 3463 -91 2816 -91 
Q 2450 -91 2169 54 
Q 1888 200 1656 506 
L 1656 0 
L 538 0 
L 538 4863 
L 1656 4863 
L 1656 2988 
z
" id="DejaVuSans-Bold-62" transform="scale(0.015625)"/>
      <path d="M 3834 4519 
L 3834 3531 
Q 3450 3703 3084 3790 
Q 2719 3878 2394 3878 
Q 1963 3878 1756 3759 
Q 1550 3641 1550 3391 
Q 1550 3203 1689 3098 
Q 1828 2994 2194 2919 
L 2706 2816 
Q 3484 2659 3812 2340 
Q 4141 2022 4141 1434 
Q 4141 663 3683 286 
Q 3225 -91 2284 -91 
Q 1841 -91 1394 -6 
Q 947 78 500 244 
L 500 1259 
Q 947 1022 1364 901 
Q 1781 781 2169 781 
Q 2563 781 2772 912 
Q 2981 1044 2981 1288 
Q 2981 1506 2839 1625 
Q 2697 1744 2272 1838 
L 1806 1941 
Q 1106 2091 782 2419 
Q 459 2747 459 3303 
Q 459 4000 909 4375 
Q 1359 4750 2203 4750 
Q 2588 4750 2994 4692 
Q 3400 4634 3834 4519 
z
" id="DejaVuSans-Bold-53" transform="scale(0.015625)"/>
      <path d="M 588 4666 
L 2584 4666 
Q 3475 4666 3951 4270 
Q 4428 3875 4428 3144 
Q 4428 2409 3951 2014 
Q 3475 1619 2584 1619 
L 1791 1619 
L 1791 0 
L 588 0 
L 588 4666 
z
M 1791 3794 
L 1791 2491 
L 2456 2491 
Q 2806 2491 2997 2661 
Q 3188 2831 3188 3144 
Q 3188 3456 2997 3625 
Q 2806 3794 2456 3794 
L 1791 3794 
z
" id="DejaVuSans-Bold-50" transform="scale(0.015625)"/>
      <path d="M 588 4666 
L 3834 4666 
L 3834 3756 
L 1791 3756 
L 1791 2888 
L 3713 2888 
L 3713 1978 
L 1791 1978 
L 1791 0 
L 588 0 
L 588 4666 
z
" id="DejaVuSans-Bold-46" transform="scale(0.015625)"/>
      <path d="M 3419 850 
L 1538 850 
L 1241 0 
L 31 0 
L 1759 4666 
L 3194 4666 
L 4922 0 
L 3713 0 
L 3419 850 
z
M 1838 1716 
L 3116 1716 
L 2478 3572 
L 1838 1716 
z
" id="DejaVuSans-Bold-41" transform="scale(0.015625)"/>
      <path d="M 2919 594 
Q 2688 288 2409 144 
Q 2131 0 1766 0 
Q 1125 0 706 504 
Q 288 1009 288 1791 
Q 288 2575 706 3076 
Q 1125 3578 1766 3578 
Q 2131 3578 2409 3434 
Q 2688 3291 2919 2981 
L 2919 3500 
L 4044 3500 
L 4044 353 
Q 4044 -491 3511 -936 
Q 2978 -1381 1966 -1381 
Q 1638 -1381 1331 -1331 
Q 1025 -1281 716 -1178 
L 716 -306 
Q 1009 -475 1290 -558 
Q 1572 -641 1856 -641 
Q 2406 -641 2662 -400 
Q 2919 -159 2919 353 
L 2919 594 
z
M 2181 2772 
Q 1834 2772 1640 2515 
Q 1447 2259 1447 1791 
Q 1447 1309 1634 1061 
Q 1822 813 2181 813 
Q 2531 813 2725 1069 
Q 2919 1325 2919 1791 
Q 2919 2259 2725 2515 
Q 2531 2772 2181 2772 
z
" id="DejaVuSans-Bold-67" transform="scale(0.015625)"/>
      <path d="M 641 103 
L 641 966 
Q 928 831 1190 764 
Q 1453 697 1709 697 
Q 2247 697 2547 995 
Q 2847 1294 2900 1881 
Q 2688 1725 2447 1647 
Q 2206 1569 1925 1569 
Q 1209 1569 770 1986 
Q 331 2403 331 3084 
Q 331 3838 820 4291 
Q 1309 4744 2131 4744 
Q 3044 4744 3544 4128 
Q 4044 3513 4044 2388 
Q 4044 1231 3459 570 
Q 2875 -91 1856 -91 
Q 1528 -91 1228 -42 
Q 928 6 641 103 
z
M 2125 2350 
Q 2441 2350 2600 2554 
Q 2759 2759 2759 3169 
Q 2759 3575 2600 3781 
Q 2441 3988 2125 3988 
Q 1809 3988 1650 3781 
Q 1491 3575 1491 3169 
Q 1491 2759 1650 2554 
Q 1809 2350 2125 2350 
z
" id="DejaVuSans-Bold-39" transform="scale(0.015625)"/>
      <path d="M 4288 256 
Q 3956 84 3597 -3 
Q 3238 -91 2847 -91 
Q 1681 -91 1000 561 
Q 319 1213 319 2328 
Q 319 3447 1000 4098 
Q 1681 4750 2847 4750 
Q 3238 4750 3597 4662 
Q 3956 4575 4288 4403 
L 4288 3438 
Q 3953 3666 3628 3772 
Q 3303 3878 2944 3878 
Q 2300 3878 1931 3465 
Q 1563 3053 1563 2328 
Q 1563 1606 1931 1193 
Q 2300 781 2944 781 
Q 3303 781 3628 887 
Q 3953 994 4288 1222 
L 4288 256 
z
" id="DejaVuSans-Bold-43" transform="scale(0.015625)"/>
     </defs>
     <use xlink:href="#DejaVuSans-Bold-4c"/>
     <use x="63.720703" xlink:href="#DejaVuSans-Bold-69"/>
     <use x="97.998047" xlink:href="#DejaVuSans-Bold-6e"/>
     <use x="169.189453" xlink:href="#DejaVuSans-Bold-75"/>
     <use x="240.380859" xlink:href="#DejaVuSans-Bold-78"/>
     <use x="304.882812" xlink:href="#DejaVuSans-Bold-20"/>
     <use x="339.697266" xlink:href="#DejaVuSans-Bold-35"/>
     <use x="409.277344" xlink:href="#DejaVuSans-Bold-2e"/>
     <use x="447.265625" xlink:href="#DejaVuSans-Bold-38"/>
     <use x="516.845703" xlink:href="#DejaVuSans-Bold-2e"/>
     <use x="554.833984" xlink:href="#DejaVuSans-Bold-30"/>
     <use x="624.414062" xlink:href="#DejaVuSans-Bold-2d"/>
     <use x="665.917969" xlink:href="#DejaVuSans-Bold-31"/>
     <use x="735.498047" xlink:href="#DejaVuSans-Bold-30"/>
     <use x="805.078125" xlink:href="#DejaVuSans-Bold-34"/>
     <use x="874.658203" xlink:href="#DejaVuSans-Bold-31"/>
     <use x="944.238281" xlink:href="#DejaVuSans-Bold-2d"/>
     <use x="985.742188" xlink:href="#DejaVuSans-Bold-61"/>
     <use x="1053.222656" xlink:href="#DejaVuSans-Bold-7a"/>
     <use x="1111.425781" xlink:href="#DejaVuSans-Bold-75"/>
     <use x="1182.617188" xlink:href="#DejaVuSans-Bold-72"/>
     <use x="1231.933594" xlink:href="#DejaVuSans-Bold-65"/>
     <use x="1299.755859" xlink:href="#DejaVuSans-Bold-20"/>
     <use x="1334.570312" xlink:href="#DejaVuSans-Bold-78"/>
     <use x="1399.072266" xlink:href="#DejaVuSans-Bold-38"/>
     <use x="1468.652344" xlink:href="#DejaVuSans-Bold-36"/>
     <use x="1538.232422" xlink:href="#DejaVuSans-Bold-5f"/>
     <use x="1588.232422" xlink:href="#DejaVuSans-Bold-36"/>
     <use x="1657.8125" xlink:href="#DejaVuSans-Bold-34"/>
     <use x="1727.392578" xlink:href="#DejaVuSans-Bold-20"/>
     <use x="1762.207031" xlink:href="#DejaVuSans-Bold-23"/>
     <use x="1845.996094" xlink:href="#DejaVuSans-Bold-34"/>
     <use x="1915.576172" xlink:href="#DejaVuSans-Bold-34"/>
     <use x="1985.15625" xlink:href="#DejaVuSans-Bold-7e"/>
     <use x="2068.945312" xlink:href="#DejaVuSans-Bold-32"/>
     <use x="2138.525391" xlink:href="#DejaVuSans-Bold-30"/>
     <use x="2208.105469" xlink:href="#DejaVuSans-Bold-2e"/>
     <use x="2246.09375" xlink:href="#DejaVuSans-Bold-30"/>
     <use x="2315.673828" xlink:href="#DejaVuSans-Bold-34"/>
     <use x="2385.253906" xlink:href="#DejaVuSans-Bold-2e"/>
     <use x="2423.242188" xlink:href="#DejaVuSans-Bold-31"/>
     <use x="2492.822266" xlink:href="#DejaVuSans-Bold-2d"/>
     <use x="2534.326172" xlink:href="#DejaVuSans-Bold-55"/>
     <use x="2615.527344" xlink:href="#DejaVuSans-Bold-62"/>
     <use x="2687.109375" xlink:href="#DejaVuSans-Bold-75"/>
     <use x="2758.300781" xlink:href="#DejaVuSans-Bold-6e"/>
     <use x="2829.492188" xlink:href="#DejaVuSans-Bold-74"/>
     <use x="2877.294922" xlink:href="#DejaVuSans-Bold-75"/>
     <use x="2948.486328" xlink:href="#DejaVuSans-Bold-20"/>
     <use x="2983.300781" xlink:href="#DejaVuSans-Bold-53"/>
     <use x="3055.322266" xlink:href="#DejaVuSans-Bold-4d"/>
     <use x="3154.833984" xlink:href="#DejaVuSans-Bold-50"/>
     <use x="3228.125" xlink:href="#DejaVuSans-Bold-20"/>
     <use x="3262.939453" xlink:href="#DejaVuSans-Bold-46"/>
     <use x="3324.875" xlink:href="#DejaVuSans-Bold-72"/>
     <use x="3374.191406" xlink:href="#DejaVuSans-Bold-69"/>
     <use x="3408.46875" xlink:href="#DejaVuSans-Bold-20"/>
     <use x="3443.283203" xlink:href="#DejaVuSans-Bold-41"/>
     <use x="3520.675781" xlink:href="#DejaVuSans-Bold-75"/>
     <use x="3591.867188" xlink:href="#DejaVuSans-Bold-67"/>
     <use x="3663.449219" xlink:href="#DejaVuSans-Bold-20"/>
     <use x="3698.263672" xlink:href="#DejaVuSans-Bold-32"/>
     <use x="3767.84375" xlink:href="#DejaVuSans-Bold-30"/>
     <use x="3837.423828" xlink:href="#DejaVuSans-Bold-20"/>
     <use x="3872.238281" xlink:href="#DejaVuSans-Bold-32"/>
     <use x="3941.818359" xlink:href="#DejaVuSans-Bold-30"/>
     <use x="4011.398438" xlink:href="#DejaVuSans-Bold-3a"/>
     <use x="4051.388672" xlink:href="#DejaVuSans-Bold-34"/>
     <use x="4120.96875" xlink:href="#DejaVuSans-Bold-31"/>
     <use x="4190.548828" xlink:href="#DejaVuSans-Bold-3a"/>
     <use x="4230.539062" xlink:href="#DejaVuSans-Bold-30"/>
     <use x="4300.119141" xlink:href="#DejaVuSans-Bold-39"/>
     <use x="4369.699219" xlink:href="#DejaVuSans-Bold-20"/>
     <use x="4404.513672" xlink:href="#DejaVuSans-Bold-55"/>
     <use x="4485.714844" xlink:href="#DejaVuSans-Bold-54"/>
     <use x="4553.927734" xlink:href="#DejaVuSans-Bold-43"/>
     <use x="4627.316406" xlink:href="#DejaVuSans-Bold-20"/>
     <use x="4662.130859" xlink:href="#DejaVuSans-Bold-32"/>
     <use x="4731.710938" xlink:href="#DejaVuSans-Bold-30"/>
     <use x="4801.291016" xlink:href="#DejaVuSans-Bold-32"/>
     <use x="4870.871094" xlink:href="#DejaVuSans-Bold-31"/>
    </g>
    <!--  -->
    <g transform="translate(368.419688 108.326625)scale(0.12 -0.12)"/>
    <!-- Version:  -->
    <g transform="translate(338.56875 121.764)scale(0.12 -0.12)">
     <defs>
      <path d="M 31 4666 
L 1241 4666 
L 2478 1222 
L 3713 4666 
L 4922 4666 
L 3194 0 
L 1759 0 
L 31 4666 
z
" id="DejaVuSans-Bold-56" transform="scale(0.015625)"/>
      <path d="M 2203 2784 
Q 1831 2784 1636 2517 
Q 1441 2250 1441 1747 
Q 1441 1244 1636 976 
Q 1831 709 2203 709 
Q 2569 709 2762 976 
Q 2956 1244 2956 1747 
Q 2956 2250 2762 2517 
Q 2569 2784 2203 2784 
z
M 2203 3584 
Q 3106 3584 3614 3096 
Q 4122 2609 4122 1747 
Q 4122 884 3614 396 
Q 3106 -91 2203 -91 
Q 1297 -91 786 396 
Q 275 884 275 1747 
Q 275 2609 786 3096 
Q 1297 3584 2203 3584 
z
" id="DejaVuSans-Bold-6f" transform="scale(0.015625)"/>
     </defs>
     <use xlink:href="#DejaVuSans-Bold-56"/>
     <use x="71.892578" xlink:href="#DejaVuSans-Bold-65"/>
     <use x="139.714844" xlink:href="#DejaVuSans-Bold-72"/>
     <use x="189.03125" xlink:href="#DejaVuSans-Bold-73"/>
     <use x="248.552734" xlink:href="#DejaVuSans-Bold-69"/>
     <use x="282.830078" xlink:href="#DejaVuSans-Bold-6f"/>
     <use x="351.53125" xlink:href="#DejaVuSans-Bold-6e"/>
     <use x="422.722656" xlink:href="#DejaVuSans-Bold-3a"/>
     <use x="462.712891" xlink:href="#DejaVuSans-Bold-20"/>
    </g>
    <!-- - CPython 3.9.7 (default, Sep  6 2021, 15:30:15) [GCC 9.3.0] -->
    <g transform="translate(165.6375 135.201375)scale(0.12 -0.12)">
     <defs>
      <path d="M 78 3500 
L 1197 3500 
L 2138 1125 
L 2938 3500 
L 4056 3500 
L 2584 -331 
Q 2363 -916 2067 -1148 
Q 1772 -1381 1288 -1381 
L 641 -1381 
L 641 -647 
L 991 -647 
Q 1275 -647 1404 -556 
Q 1534 -466 1606 -231 
L 1638 -134 
L 78 3500 
z
" id="DejaVuSans-Bold-79" transform="scale(0.015625)"/>
      <path d="M 2981 2516 
Q 3453 2394 3698 2092 
Q 3944 1791 3944 1325 
Q 3944 631 3412 270 
Q 2881 -91 1863 -91 
Q 1503 -91 1142 -33 
Q 781 25 428 141 
L 428 1069 
Q 766 900 1098 814 
Q 1431 728 1753 728 
Q 2231 728 2486 893 
Q 2741 1059 2741 1369 
Q 2741 1688 2480 1852 
Q 2219 2016 1709 2016 
L 1228 2016 
L 1228 2791 
L 1734 2791 
Q 2188 2791 2409 2933 
Q 2631 3075 2631 3366 
Q 2631 3634 2415 3781 
Q 2200 3928 1806 3928 
Q 1516 3928 1219 3862 
Q 922 3797 628 3669 
L 628 4550 
Q 984 4650 1334 4700 
Q 1684 4750 2022 4750 
Q 2931 4750 3382 4451 
Q 3834 4153 3834 3553 
Q 3834 3144 3618 2883 
Q 3403 2622 2981 2516 
z
" id="DejaVuSans-Bold-33" transform="scale(0.015625)"/>
      <path d="M 428 4666 
L 3944 4666 
L 3944 3988 
L 2125 0 
L 953 0 
L 2675 3781 
L 428 3781 
L 428 4666 
z
" id="DejaVuSans-Bold-37" transform="scale(0.015625)"/>
      <path d="M 2413 -844 
L 1484 -844 
Q 1006 -72 778 623 
Q 550 1319 550 2003 
Q 550 2688 779 3389 
Q 1009 4091 1484 4856 
L 2413 4856 
Q 2013 4116 1813 3408 
Q 1613 2700 1613 2009 
Q 1613 1319 1811 609 
Q 2009 -100 2413 -844 
z
" id="DejaVuSans-Bold-28" transform="scale(0.015625)"/>
      <path d="M 2919 2988 
L 2919 4863 
L 4044 4863 
L 4044 0 
L 2919 0 
L 2919 506 
Q 2688 197 2409 53 
Q 2131 -91 1766 -91 
Q 1119 -91 703 423 
Q 288 938 288 1747 
Q 288 2556 703 3070 
Q 1119 3584 1766 3584 
Q 2128 3584 2408 3439 
Q 2688 3294 2919 2988 
z
M 2181 722 
Q 2541 722 2730 984 
Q 2919 1247 2919 1747 
Q 2919 2247 2730 2509 
Q 2541 2772 2181 2772 
Q 1825 2772 1636 2509 
Q 1447 2247 1447 1747 
Q 1447 1247 1636 984 
Q 1825 722 2181 722 
z
" id="DejaVuSans-Bold-64" transform="scale(0.015625)"/>
      <path d="M 2841 4863 
L 2841 4128 
L 2222 4128 
Q 1984 4128 1890 4042 
Q 1797 3956 1797 3744 
L 1797 3500 
L 2753 3500 
L 2753 2700 
L 1797 2700 
L 1797 0 
L 678 0 
L 678 2700 
L 122 2700 
L 122 3500 
L 678 3500 
L 678 3744 
Q 678 4316 997 4589 
Q 1316 4863 1984 4863 
L 2841 4863 
z
" id="DejaVuSans-Bold-66" transform="scale(0.015625)"/>
      <path d="M 538 4863 
L 1656 4863 
L 1656 0 
L 538 0 
L 538 4863 
z
" id="DejaVuSans-Bold-6c" transform="scale(0.015625)"/>
      <path d="M 653 1209 
L 1778 1209 
L 1778 256 
L 1006 -909 
L 341 -909 
L 653 256 
L 653 1209 
z
" id="DejaVuSans-Bold-2c" transform="scale(0.015625)"/>
      <path d="M 1656 506 
L 1656 -1331 
L 538 -1331 
L 538 3500 
L 1656 3500 
L 1656 2988 
Q 1888 3294 2169 3439 
Q 2450 3584 2816 3584 
Q 3463 3584 3878 3070 
Q 4294 2556 4294 1747 
Q 4294 938 3878 423 
Q 3463 -91 2816 -91 
Q 2450 -91 2169 54 
Q 1888 200 1656 506 
z
M 2400 2772 
Q 2041 2772 1848 2508 
Q 1656 2244 1656 1747 
Q 1656 1250 1848 986 
Q 2041 722 2400 722 
Q 2759 722 2948 984 
Q 3138 1247 3138 1747 
Q 3138 2247 2948 2509 
Q 2759 2772 2400 2772 
z
" id="DejaVuSans-Bold-70" transform="scale(0.015625)"/>
      <path d="M 513 -844 
Q 913 -100 1113 609 
Q 1313 1319 1313 2009 
Q 1313 2700 1113 3408 
Q 913 4116 513 4856 
L 1441 4856 
Q 1916 4091 2145 3389 
Q 2375 2688 2375 2003 
Q 2375 1319 2147 623 
Q 1919 -72 1441 -844 
L 513 -844 
z
" id="DejaVuSans-Bold-29" transform="scale(0.015625)"/>
      <path d="M 550 4863 
L 2491 4863 
L 2491 4159 
L 1613 4159 
L 1613 -141 
L 2491 -141 
L 2491 -844 
L 550 -844 
L 550 4863 
z
" id="DejaVuSans-Bold-5b" transform="scale(0.015625)"/>
      <path d="M 4781 347 
Q 4331 128 3847 18 
Q 3363 -91 2847 -91 
Q 1681 -91 1000 561 
Q 319 1213 319 2328 
Q 319 3456 1012 4103 
Q 1706 4750 2913 4750 
Q 3378 4750 3804 4662 
Q 4231 4575 4609 4403 
L 4609 3438 
Q 4219 3659 3833 3768 
Q 3447 3878 3059 3878 
Q 2341 3878 1952 3476 
Q 1563 3075 1563 2328 
Q 1563 1588 1938 1184 
Q 2313 781 3003 781 
Q 3191 781 3352 804 
Q 3513 828 3641 878 
L 3641 1784 
L 2906 1784 
L 2906 2591 
L 4781 2591 
L 4781 347 
z
" id="DejaVuSans-Bold-47" transform="scale(0.015625)"/>
      <path d="M 2375 -844 
L 434 -844 
L 434 -141 
L 1313 -141 
L 1313 4159 
L 434 4159 
L 434 4863 
L 2375 4863 
L 2375 -844 
z
" id="DejaVuSans-Bold-5d" transform="scale(0.015625)"/>
     </defs>
     <use xlink:href="#DejaVuSans-Bold-2d"/>
     <use x="41.503906" xlink:href="#DejaVuSans-Bold-20"/>
     <use x="76.318359" xlink:href="#DejaVuSans-Bold-43"/>
     <use x="149.707031" xlink:href="#DejaVuSans-Bold-50"/>
     <use x="224.873047" xlink:href="#DejaVuSans-Bold-79"/>
     <use x="290.058594" xlink:href="#DejaVuSans-Bold-74"/>
     <use x="337.861328" xlink:href="#DejaVuSans-Bold-68"/>
     <use x="409.052734" xlink:href="#DejaVuSans-Bold-6f"/>
     <use x="477.753906" xlink:href="#DejaVuSans-Bold-6e"/>
     <use x="548.945312" xlink:href="#DejaVuSans-Bold-20"/>
     <use x="583.759766" xlink:href="#DejaVuSans-Bold-33"/>
     <use x="653.339844" xlink:href="#DejaVuSans-Bold-2e"/>
     <use x="691.328125" xlink:href="#DejaVuSans-Bold-39"/>
     <use x="760.908203" xlink:href="#DejaVuSans-Bold-2e"/>
     <use x="798.896484" xlink:href="#DejaVuSans-Bold-37"/>
     <use x="868.476562" xlink:href="#DejaVuSans-Bold-20"/>
     <use x="903.291016" xlink:href="#DejaVuSans-Bold-28"/>
     <use x="948.994141" xlink:href="#DejaVuSans-Bold-64"/>
     <use x="1020.576172" xlink:href="#DejaVuSans-Bold-65"/>
     <use x="1088.398438" xlink:href="#DejaVuSans-Bold-66"/>
     <use x="1131.904297" xlink:href="#DejaVuSans-Bold-61"/>
     <use x="1199.384766" xlink:href="#DejaVuSans-Bold-75"/>
     <use x="1270.576172" xlink:href="#DejaVuSans-Bold-6c"/>
     <use x="1304.853516" xlink:href="#DejaVuSans-Bold-74"/>
     <use x="1352.65625" xlink:href="#DejaVuSans-Bold-2c"/>
     <use x="1390.644531" xlink:href="#DejaVuSans-Bold-20"/>
     <use x="1425.458984" xlink:href="#DejaVuSans-Bold-53"/>
     <use x="1497.480469" xlink:href="#DejaVuSans-Bold-65"/>
     <use x="1565.302734" xlink:href="#DejaVuSans-Bold-70"/>
     <use x="1636.884766" xlink:href="#DejaVuSans-Bold-20"/>
     <use x="1671.699219" xlink:href="#DejaVuSans-Bold-20"/>
     <use x="1706.513672" xlink:href="#DejaVuSans-Bold-36"/>
     <use x="1776.09375" xlink:href="#DejaVuSans-Bold-20"/>
     <use x="1810.908203" xlink:href="#DejaVuSans-Bold-32"/>
     <use x="1880.488281" xlink:href="#DejaVuSans-Bold-30"/>
     <use x="1950.068359" xlink:href="#DejaVuSans-Bold-32"/>
     <use x="2019.648438" xlink:href="#DejaVuSans-Bold-31"/>
     <use x="2089.228516" xlink:href="#DejaVuSans-Bold-2c"/>
     <use x="2127.216797" xlink:href="#DejaVuSans-Bold-20"/>
     <use x="2162.03125" xlink:href="#DejaVuSans-Bold-31"/>
     <use x="2231.611328" xlink:href="#DejaVuSans-Bold-35"/>
     <use x="2301.191406" xlink:href="#DejaVuSans-Bold-3a"/>
     <use x="2341.181641" xlink:href="#DejaVuSans-Bold-33"/>
     <use x="2410.761719" xlink:href="#DejaVuSans-Bold-30"/>
     <use x="2480.341797" xlink:href="#DejaVuSans-Bold-3a"/>
     <use x="2520.332031" xlink:href="#DejaVuSans-Bold-31"/>
     <use x="2589.912109" xlink:href="#DejaVuSans-Bold-35"/>
     <use x="2659.492188" xlink:href="#DejaVuSans-Bold-29"/>
     <use x="2705.195312" xlink:href="#DejaVuSans-Bold-20"/>
     <use x="2740.009766" xlink:href="#DejaVuSans-Bold-5b"/>
     <use x="2785.712891" xlink:href="#DejaVuSans-Bold-47"/>
     <use x="2867.792969" xlink:href="#DejaVuSans-Bold-43"/>
     <use x="2941.181641" xlink:href="#DejaVuSans-Bold-43"/>
     <use x="3014.570312" xlink:href="#DejaVuSans-Bold-20"/>
     <use x="3049.384766" xlink:href="#DejaVuSans-Bold-39"/>
     <use x="3118.964844" xlink:href="#DejaVuSans-Bold-2e"/>
     <use x="3156.953125" xlink:href="#DejaVuSans-Bold-33"/>
     <use x="3226.533203" xlink:href="#DejaVuSans-Bold-2e"/>
     <use x="3264.521484" xlink:href="#DejaVuSans-Bold-30"/>
     <use x="3334.101562" xlink:href="#DejaVuSans-Bold-5d"/>
    </g>
    <!-- - python-markdown: 3.3.4 -->
    <g transform="translate(280.560938 148.7325)scale(0.12 -0.12)">
     <defs>
      <path d="M 3781 2919 
Q 3994 3244 4286 3414 
Q 4578 3584 4928 3584 
Q 5531 3584 5847 3212 
Q 6163 2841 6163 2131 
L 6163 0 
L 5038 0 
L 5038 1825 
Q 5041 1866 5042 1909 
Q 5044 1953 5044 2034 
Q 5044 2406 4934 2573 
Q 4825 2741 4581 2741 
Q 4263 2741 4089 2478 
Q 3916 2216 3909 1719 
L 3909 0 
L 2784 0 
L 2784 1825 
Q 2784 2406 2684 2573 
Q 2584 2741 2328 2741 
Q 2006 2741 1831 2477 
Q 1656 2213 1656 1722 
L 1656 0 
L 531 0 
L 531 3500 
L 1656 3500 
L 1656 2988 
Q 1863 3284 2130 3434 
Q 2397 3584 2719 3584 
Q 3081 3584 3359 3409 
Q 3638 3234 3781 2919 
z
" id="DejaVuSans-Bold-6d" transform="scale(0.015625)"/>
      <path d="M 538 4863 
L 1656 4863 
L 1656 2216 
L 2944 3500 
L 4244 3500 
L 2534 1894 
L 4378 0 
L 3022 0 
L 1656 1459 
L 1656 0 
L 538 0 
L 538 4863 
z
" id="DejaVuSans-Bold-6b" transform="scale(0.015625)"/>
      <path d="M 225 3500 
L 1313 3500 
L 1900 1088 
L 2491 3500 
L 3425 3500 
L 4013 1113 
L 4603 3500 
L 5691 3500 
L 4769 0 
L 3547 0 
L 2956 2406 
L 2369 0 
L 1147 0 
L 225 3500 
z
" id="DejaVuSans-Bold-77" transform="scale(0.015625)"/>
     </defs>
     <use xlink:href="#DejaVuSans-Bold-2d"/>
     <use x="41.503906" xlink:href="#DejaVuSans-Bold-20"/>
     <use x="76.318359" xlink:href="#DejaVuSans-Bold-70"/>
     <use x="147.900391" xlink:href="#DejaVuSans-Bold-79"/>
     <use x="213.085938" xlink:href="#DejaVuSans-Bold-74"/>
     <use x="260.888672" xlink:href="#DejaVuSans-Bold-68"/>
     <use x="332.080078" xlink:href="#DejaVuSans-Bold-6f"/>
     <use x="400.78125" xlink:href="#DejaVuSans-Bold-6e"/>
     <use x="471.972656" xlink:href="#DejaVuSans-Bold-2d"/>
     <use x="513.476562" xlink:href="#DejaVuSans-Bold-6d"/>
     <use x="617.675781" xlink:href="#DejaVuSans-Bold-61"/>
     <use x="685.15625" xlink:href="#DejaVuSans-Bold-72"/>
     <use x="734.472656" xlink:href="#DejaVuSans-Bold-6b"/>
     <use x="800.976562" xlink:href="#DejaVuSans-Bold-64"/>
     <use x="872.558594" xlink:href="#DejaVuSans-Bold-6f"/>
     <use x="941.259766" xlink:href="#DejaVuSans-Bold-77"/>
     <use x="1033.642578" xlink:href="#DejaVuSans-Bold-6e"/>
     <use x="1104.833984" xlink:href="#DejaVuSans-Bold-3a"/>
     <use x="1144.824219" xlink:href="#DejaVuSans-Bold-20"/>
     <use x="1179.638672" xlink:href="#DejaVuSans-Bold-33"/>
     <use x="1249.21875" xlink:href="#DejaVuSans-Bold-2e"/>
     <use x="1287.207031" xlink:href="#DejaVuSans-Bold-33"/>
     <use x="1356.787109" xlink:href="#DejaVuSans-Bold-2e"/>
     <use x="1394.775391" xlink:href="#DejaVuSans-Bold-34"/>
    </g>
    <!-- - python-markdown2: 2.4.1 -->
    <g transform="translate(276.38625 162.263625)scale(0.12 -0.12)">
     <use xlink:href="#DejaVuSans-Bold-2d"/>
     <use x="41.503906" xlink:href="#DejaVuSans-Bold-20"/>
     <use x="76.318359" xlink:href="#DejaVuSans-Bold-70"/>
     <use x="147.900391" xlink:href="#DejaVuSans-Bold-79"/>
     <use x="213.085938" xlink:href="#DejaVuSans-Bold-74"/>
     <use x="260.888672" xlink:href="#DejaVuSans-Bold-68"/>
     <use x="332.080078" xlink:href="#DejaVuSans-Bold-6f"/>
     <use x="400.78125" xlink:href="#DejaVuSans-Bold-6e"/>
     <use x="471.972656" xlink:href="#DejaVuSans-Bold-2d"/>
     <use x="513.476562" xlink:href="#DejaVuSans-Bold-6d"/>
     <use x="617.675781" xlink:href="#DejaVuSans-Bold-61"/>
     <use x="685.15625" xlink:href="#DejaVuSans-Bold-72"/>
     <use x="734.472656" xlink:href="#DejaVuSans-Bold-6b"/>
     <use x="800.976562" xlink:href="#DejaVuSans-Bold-64"/>
     <use x="872.558594" xlink:href="#DejaVuSans-Bold-6f"/>
     <use x="941.259766" xlink:href="#DejaVuSans-Bold-77"/>
     <use x="1033.642578" xlink:href="#DejaVuSans-Bold-6e"/>
     <use x="1104.833984" xlink:href="#DejaVuSans-Bold-32"/>
     <use x="1174.414062" xlink:href="#DejaVuSans-Bold-3a"/>
     <use x="1214.404297" xlink:href="#DejaVuSans-Bold-20"/>
     <use x="1249.21875" xlink:href="#DejaVuSans-Bold-32"/>
     <use x="1318.798828" xlink:href="#DejaVuSans-Bold-2e"/>
     <use x="1356.787109" xlink:href="#DejaVuSans-Bold-34"/>
     <use x="1426.367188" xlink:href="#DejaVuSans-Bold-2e"/>
     <use x="1464.355469" xlink:href="#DejaVuSans-Bold-31"/>
    </g>
    <!-- - umarkdown: 1.2.2a1 -->
    <g transform="translate(294.294375 175.79475)scale(0.12 -0.12)">
     <use xlink:href="#DejaVuSans-Bold-2d"/>
     <use x="41.503906" xlink:href="#DejaVuSans-Bold-20"/>
     <use x="76.318359" xlink:href="#DejaVuSans-Bold-75"/>
     <use x="147.509766" xlink:href="#DejaVuSans-Bold-6d"/>
     <use x="251.708984" xlink:href="#DejaVuSans-Bold-61"/>
     <use x="319.189453" xlink:href="#DejaVuSans-Bold-72"/>
     <use x="368.505859" xlink:href="#DejaVuSans-Bold-6b"/>
     <use x="435.009766" xlink:href="#DejaVuSans-Bold-64"/>
     <use x="506.591797" xlink:href="#DejaVuSans-Bold-6f"/>
     <use x="575.292969" xlink:href="#DejaVuSans-Bold-77"/>
     <use x="667.675781" xlink:href="#DejaVuSans-Bold-6e"/>
     <use x="738.867188" xlink:href="#DejaVuSans-Bold-3a"/>
     <use x="778.857422" xlink:href="#DejaVuSans-Bold-20"/>
     <use x="813.671875" xlink:href="#DejaVuSans-Bold-31"/>
     <use x="883.251953" xlink:href="#DejaVuSans-Bold-2e"/>
     <use x="921.240234" xlink:href="#DejaVuSans-Bold-32"/>
     <use x="990.820312" xlink:href="#DejaVuSans-Bold-2e"/>
     <use x="1028.808594" xlink:href="#DejaVuSans-Bold-32"/>
     <use x="1098.388672" xlink:href="#DejaVuSans-Bold-61"/>
     <use x="1165.869141" xlink:href="#DejaVuSans-Bold-31"/>
    </g>
    <!--  -->
    <g transform="translate(368.419688 189.232125)scale(0.12 -0.12)"/>
    <!-- Test File Size: 1MB -->
    <g transform="translate(305.007187 202.6695)scale(0.12 -0.12)">
     <defs>
      <path d="M 2456 2859 
Q 2741 2859 2887 2984 
Q 3034 3109 3034 3353 
Q 3034 3594 2887 3720 
Q 2741 3847 2456 3847 
L 1791 3847 
L 1791 2859 
L 2456 2859 
z
M 2497 819 
Q 2859 819 3042 972 
Q 3225 1125 3225 1434 
Q 3225 1738 3044 1889 
Q 2863 2041 2497 2041 
L 1791 2041 
L 1791 819 
L 2497 819 
z
M 3616 2497 
Q 4003 2384 4215 2081 
Q 4428 1778 4428 1338 
Q 4428 663 3972 331 
Q 3516 0 2584 0 
L 588 0 
L 588 4666 
L 2394 4666 
Q 3366 4666 3802 4372 
Q 4238 4078 4238 3431 
Q 4238 3091 4078 2852 
Q 3919 2613 3616 2497 
z
" id="DejaVuSans-Bold-42" transform="scale(0.015625)"/>
     </defs>
     <use xlink:href="#DejaVuSans-Bold-54"/>
     <use x="54.962891" xlink:href="#DejaVuSans-Bold-65"/>
     <use x="122.785156" xlink:href="#DejaVuSans-Bold-73"/>
     <use x="182.306641" xlink:href="#DejaVuSans-Bold-74"/>
     <use x="230.109375" xlink:href="#DejaVuSans-Bold-20"/>
     <use x="264.923828" xlink:href="#DejaVuSans-Bold-46"/>
     <use x="333.234375" xlink:href="#DejaVuSans-Bold-69"/>
     <use x="367.511719" xlink:href="#DejaVuSans-Bold-6c"/>
     <use x="401.789062" xlink:href="#DejaVuSans-Bold-65"/>
     <use x="469.611328" xlink:href="#DejaVuSans-Bold-20"/>
     <use x="504.425781" xlink:href="#DejaVuSans-Bold-53"/>
     <use x="576.447266" xlink:href="#DejaVuSans-Bold-69"/>
     <use x="610.724609" xlink:href="#DejaVuSans-Bold-7a"/>
     <use x="668.927734" xlink:href="#DejaVuSans-Bold-65"/>
     <use x="736.75" xlink:href="#DejaVuSans-Bold-3a"/>
     <use x="776.740234" xlink:href="#DejaVuSans-Bold-20"/>
     <use x="811.554688" xlink:href="#DejaVuSans-Bold-31"/>
     <use x="881.134766" xlink:href="#DejaVuSans-Bold-4d"/>
     <use x="980.646484" xlink:href="#DejaVuSans-Bold-42"/>
    </g>
    <!--  -->
    <g transform="translate(368.419688 216.106875)scale(0.12 -0.12)"/>
    <!--  -->
    <g transform="translate(368.419688 229.54425)scale(0.12 -0.12)"/>
   </g>
  </g>
 </g>
 <defs>
  <clipPath id="pc4d5d7f74b">
   <rect height="388.08" width="502.2" x="117.319687" y="235.54425"/>
  </clipPath>
 </defs>
</svg>
